<?xml version="1.0" standalone="no"?>
<!DOCTYPE svg PUBLIC "-//W3C//DTD SVG 20010904//EN"
 "http://www.w3.org/TR/2001/REC-SVG-20010904/DTD/svg10.dtd">
<svg version="1.0" xmlns="http://www.w3.org/2000/svg"
 width="512.000000pt" height="512.000000pt" viewBox="0 0 512.000000 512.000000"
 preserveAspectRatio="xMidYMid meet">
<metadata>
Created by potrace 1.11, written by Peter Selinger 2001-2013
</metadata>
<g transform="translate(0.000000,512.000000) scale(0.100000,-0.100000)"
fill="#000000" stroke="none">
<path d="M0 2560 l0 -2560 2560 0 2560 0 0 2560 0 2560 -2560 0 -2560 0 0
-2560z m1808 766 c38 -95 63 -205 69 -303 l6 -93 448 0 c435 0 449 1 449 19 0
77 -52 254 -106 363 -19 37 -34 70 -34 73 0 3 62 5 139 5 l139 0 20 -52 c45
-116 67 -208 78 -330 l7 -78 928 0 929 0 0 -85 0 -85 -100 0 -100 0 0 -128 0
-128 40 -39 c39 -38 72 -97 86 -149 l6 -26 -95 0 -96 0 -6 48 c-9 68 -23 98
-61 132 -69 60 -185 65 -299 12 -90 -43 -157 -109 -203 -201 -32 -65 -37 -84
-37 -146 0 -61 4 -78 27 -112 37 -56 85 -77 190 -81 105 -5 168 13 223 63 l38
35 128 0 c148 0 147 1 102 -82 -48 -88 -193 -172 -318 -184 -96 -9 -171 8
-285 64 -77 38 -110 61 -176 127 -109 108 -149 187 -149 295 0 60 5 86 26 130
59 124 174 236 287 279 66 26 233 29 297 6 22 -8 41 -15 43 -15 1 0 2 23 2 50
l0 50 -715 0 -715 0 0 -144 0 -144 33 30 c61 58 112 96 167 124 49 26 65 29
141 28 77 0 94 -4 153 -33 87 -43 154 -109 197 -196 32 -65 34 -77 34 -165 0
-87 -3 -101 -32 -160 -83 -168 -267 -313 -416 -327 -86 -8 -151 20 -217 95
-28 31 -50 60 -50 64 0 4 -4 8 -10 8 -6 0 -10 -37 -10 -90 0 -49 -3 -90 -7
-90 -13 0 -208 73 -220 83 -10 7 -13 112 -13 463 l0 454 -445 0 -445 0 0 -147
0 -147 43 40 c134 128 235 168 361 145 129 -24 232 -104 293 -229 35 -70 38
-83 38 -162 0 -80 -3 -92 -39 -166 -74 -152 -266 -305 -403 -321 -89 -10 -137
10 -220 93 l-73 72 0 -90 0 -90 -26 6 c-14 4 -68 23 -120 43 l-94 36 0 459 0
458 -79 0 c-52 0 -81 4 -83 12 -2 6 -22 -33 -44 -88 l-40 -99 -86 -3 -86 -3
-21 -84 c-11 -46 -21 -89 -21 -95 0 -6 38 -10 100 -10 55 0 100 -1 100 -2 0
-2 -18 -57 -39 -123 l-40 -120 -93 -3 -93 -3 -51 -182 -50 -182 -112 -3 c-86
-2 -112 0 -112 10 0 7 23 90 50 183 28 94 50 173 50 178 0 4 -31 7 -68 7 l-69
0 -48 -174 c-26 -96 -51 -179 -54 -184 -3 -5 -52 -13 -108 -17 -100 -7 -103
-7 -103 14 0 11 18 89 40 173 22 84 40 161 40 171 0 15 -12 17 -109 17 l-109
0 32 123 31 122 106 3 106 3 16 72 c9 40 19 80 23 90 6 16 -4 17 -113 17 -66
0 -122 2 -125 5 -3 4 12 59 33 123 l38 117 48 7 c26 3 77 7 113 7 l66 1 38
158 c22 86 43 172 48 190 l9 32 110 0 111 0 -7 -29 c-3 -15 -25 -100 -49 -187
l-42 -159 74 -3 c42 -2 81 -1 87 2 7 2 34 86 60 185 l48 181 99 0 c54 0 98 -2
98 -4 0 -7 -79 -327 -86 -348 -5 -16 4 -18 100 -18 l106 0 0 45 0 45 81 0 82
0 -6 69 c-7 80 -51 220 -102 321 l-36 71 143 -3 143 -3 23 -59z"/>
<path d="M806 2496 c-14 -46 -26 -89 -26 -95 0 -8 27 -11 87 -9 l87 3 28 90
c15 50 28 91 28 93 0 1 -40 2 -89 2 l-89 0 -26 -84z"/>
<path d="M2041 2448 c-18 -7 -56 -33 -84 -58 l-51 -47 13 -56 c24 -109 172
-291 273 -337 97 -44 172 -15 223 86 43 85 41 151 -5 228 -83 138 -253 223
-369 184z"/>
<path d="M3152 2434 c-129 -64 -133 -147 -17 -310 83 -116 195 -194 280 -194
77 0 154 97 163 207 10 121 -117 270 -265 308 -78 21 -101 19 -161 -11z"/>
</g>
</svg>
